<?xml version="1.0" encoding="UTF-8"?>
<svg width="1024" height="1024" viewBox="0 0 1024 1024" xmlns="http://www.w3.org/2000/svg">
  <defs>
    <linearGradient id="bg" x1="0" y1="0" x2="1" y2="1">
      <stop offset="0" stop-color="#1f1147"/>
      <stop offset="1" stop-color="#0ea5e9"/>
    </linearGradient>
    <linearGradient id="accent" x1="0" y1="0" x2="1" y2="1">
      <stop offset="0" stop-color="#a78bfa"/>
      <stop offset="1" stop-color="#06b6d4"/>
    </linearGradient>
    <filter id="glass" x="-20%" y="-20%" width="140%" height="140%">
      <feGaussianBlur stdDeviation="4" result="b"/>
      <feColorMatrix in="b" type="matrix"
       values="0 0 0 0 1  0 0 0 0 1  0 0 0 0 1  0 0 0 0.25 0" result="s"/>
      <feComposite in="s" in2="SourceGraphic" operator="over"/>
    </filter>
  </defs>
  <rect width="1024" height="1024" rx="64" fill="url(#bg)"/>
  <g opacity="0.16">
    <rect x="-100" y="200" width="200" height="1200" transform="rotate(-30 0 0)" fill="#ffffff"/>
    <rect x="200" y="200" width="200" height="1200" transform="rotate(-30 0 0)" fill="#ffffff"/>
    <rect x="500" y="200" width="200" height="1200" transform="rotate(-30 0 0)" fill="#ffffff"/>
    <rect x="800" y="200" width="200" height="1200" transform="rotate(-30 0 0)" fill="#ffffff"/>
  </g>
  <g transform="translate(140,220)">
    <rect x="0" y="0" width="744" height="584" rx="32" fill="#ffffff22" stroke="#ffffff44" filter="url(#glass)"/>
    <circle cx="140" cy="210" r="120" fill="#ffffff33" stroke="#ffffff88"/>
    <circle cx="140" cy="210" r="8" fill="#ffffff"/>
    <path d="M460 160v190c0 40-33 73-73 73-22 0-41-10-53-26-11 16-30 26-50 26-34 0-62-28-62-62 0-34 28-62 62-62 18 0 34 7 45 19v-98c0-8 6-16 14-18l116-24c9-2 14 5 14 14z"
          fill="url(#accent)" />
  </g>
  <g font-family="Segoe UI, Arial, sans-serif" fill="#fff">
    <text x="160" y="870" font-size="64" font-weight="800" letter-spacing="2">GLASS NOTE</text>
    <text x="160" y="924" font-size="28" fill="#e5e7eb" opacity="0.9">Music Cover • 03</text>
  </g>
</svg>
