<?xml version="1.0" encoding="UTF-8"?>
<svg width="1024" height="1024" viewBox="0 0 1024 1024" xmlns="http://www.w3.org/2000/svg">
  <defs>
    <linearGradient id="g1" x1="0" y1="0" x2="1" y2="1">
      <stop offset="0" stop-color="#0ea5e9"/>
      <stop offset="1" stop-color="#8b5cf6"/>
    </linearGradient>
    <radialGradient id="glow" cx="70%" cy="20%" r="60%">
      <stop offset="0" stop-color="#ffffff" stop-opacity="0.28"/>
      <stop offset="1" stop-color="#ffffff" stop-opacity="0"/>
    </radialGradient>
    <filter id="blur"><feGaussianBlur stdDeviation="10"/></filter>
  </defs>
  <rect width="1024" height="1024" rx="64" fill="url(#g1)"/>
  <circle cx="780" cy="240" r="180" fill="url(#glow)"/>
  <g fill="none" stroke="#ffffff" stroke-opacity="0.55">
    <path d="M-50 700 C 120 640, 220 720, 360 690 S 640 620, 820 690 S 1100 760, 1100 760" stroke-width="5" filter="url(#blur)"/>
    <path d="M-50 720 C 140 660, 240 740, 380 710 S 660 640, 840 710 S 1100 780, 1100 780" stroke-width="2.5"/>
    <path d="M-50 760 C 160 700, 260 780, 400 750 S 680 680, 860 750 S 1100 820, 1100 820" stroke-width="1.6" stroke-opacity="0.75"/>
  </g>
  <g font-family="Segoe UI, Arial, sans-serif" fill="#fff">
    <text x="64" y="160" font-size="72" font-weight="800" letter-spacing="2">NEON WAVE</text>
    <text x="64" y="220" font-size="28" fill="#e5e7eb" opacity="0.9">Music Cover • 01</text>
  </g>
  <rect x="64" y="880" width="300" height="60" rx="16" fill="#00000055"/>
  <text x="84" y="920" font-family="Segoe UI, Arial, sans-serif" font-size="28" fill="#fff" opacity="0.95">Music Player</text>
</svg>
